STARTFONT 2.1
COMMENT converted Oberon font (using FontToBDF by R.Crelier 10.1.91)
FONT GreekSyntax16.Scn.Fnt
SIZE 16 75 75
FONTBOUNDINGBOX  16 19 0 -5
STARTPROPERTIES 3
FONT_ASCENT 14
FONT_DESCENT 5
DEFAULT_CHAR 0
ENDPROPERTIES
CHARS 96
STARTCHAR c0
ENCODING -1 0
SWIDTH 0 0
DWIDTH 0 0
BBX 0 0 0 0
BITMAP
ENDCHAR
STARTCHAR c9
ENCODING -1 9
SWIDTH 645 0
DWIDTH 20 0
BBX 0 0 0 0
BITMAP
ENDCHAR
STARTCHAR c32
ENCODING -1 32
SWIDTH 161 0
DWIDTH 5 0
BBX 0 0 0 0
BITMAP
ENDCHAR
STARTCHAR c33
ENCODING -1 33
SWIDTH 193 0
DWIDTH 6 0
BBX 1 13 3 0
BITMAP
80
80
80
80
80
80
80
80
80
00
00
80
80
ENDCHAR
STARTCHAR c34
ENCODING -1 34
SWIDTH 290 0
DWIDTH 9 0
BBX 9 13 0 0
BITMAP
C180
2200
2200
1400
1400
0800
0800
0800
0800
0800
0800
0800
0800
ENDCHAR
STARTCHAR c35
ENCODING -1 35
SWIDTH 354 0
DWIDTH 11 0
BBX 9 13 1 0
BITMAP
2200
2200
2200
2200
FF80
2200
2200
2200
FF80
2200
2200
2200
2200
ENDCHAR
STARTCHAR c36
ENCODING -1 36
SWIDTH 258 0
DWIDTH 8 0
BBX 6 9 1 0
BITMAP
7C
80
80
80
80
70
08
08
30
ENDCHAR
STARTCHAR c37
ENCODING -1 37
SWIDTH 419 0
DWIDTH 13 0
BBX 11 13 1 0
BITMAP
7080
8880
8900
8900
8A00
7200
0400
09C0
0A20
1220
1220
2220
21C0
ENDCHAR
STARTCHAR c38
ENCODING -1 38
SWIDTH 354 0
DWIDTH 11 0
BBX 10 13 1 0
BITMAP
1800
2400
2400
2400
2800
1000
2880
4480
8480
8280
8100
8280
7CC0
ENDCHAR
STARTCHAR c40
ENCODING -1 40
SWIDTH 258 0
DWIDTH 8 0
BBX 4 16 2 -3
BITMAP
10
20
40
40
80
80
80
80
80
80
80
80
40
40
20
10
ENDCHAR
STARTCHAR c41
ENCODING -1 41
SWIDTH 258 0
DWIDTH 8 0
BBX 4 16 2 -3
BITMAP
80
40
20
20
10
10
10
10
10
10
10
10
20
20
40
80
ENDCHAR
STARTCHAR c42
ENCODING -1 42
SWIDTH 354 0
DWIDTH 11 0
BBX 9 9 1 0
BITMAP
2200
2200
1400
0800
FF80
0800
1400
2200
2200
ENDCHAR
STARTCHAR c43
ENCODING -1 43
SWIDTH 354 0
DWIDTH 11 0
BBX 9 9 1 0
BITMAP
0800
0800
0800
0800
FF80
0800
0800
0800
0800
ENDCHAR
STARTCHAR c44
ENCODING -1 44
SWIDTH 129 0
DWIDTH 4 0
BBX 1 4 1 -2
BITMAP
80
80
80
80
ENDCHAR
STARTCHAR c45
ENCODING -1 45
SWIDTH 354 0
DWIDTH 11 0
BBX 9 1 1 4
BITMAP
FF80
ENDCHAR
STARTCHAR c46
ENCODING -1 46
SWIDTH 129 0
DWIDTH 4 0
BBX 1 2 1 0
BITMAP
80
80
ENDCHAR
STARTCHAR c47
ENCODING -1 47
SWIDTH 322 0
DWIDTH 10 0
BBX 7 15 2 -1
BITMAP
02
02
04
04
08
08
10
10
10
20
20
40
40
80
80
ENDCHAR
STARTCHAR c48
ENCODING -1 48
SWIDTH 322 0
DWIDTH 10 0
BBX 8 13 1 0
BITMAP
3C
42
42
81
81
81
81
81
81
81
42
42
3C
ENDCHAR
STARTCHAR c49
ENCODING -1 49
SWIDTH 322 0
DWIDTH 10 0
BBX 5 13 1 0
BITMAP
08
18
28
48
88
08
08
08
08
08
08
08
08
ENDCHAR
STARTCHAR c50
ENCODING -1 50
SWIDTH 322 0
DWIDTH 10 0
BBX 8 13 1 0
BITMAP
78
04
02
02
02
02
04
04
08
10
20
40
FF
ENDCHAR
STARTCHAR c51
ENCODING -1 51
SWIDTH 322 0
DWIDTH 10 0
BBX 6 13 2 0
BITMAP
F0
08
04
04
04
08
F0
08
04
04
04
08
F0
ENDCHAR
STARTCHAR c52
ENCODING -1 52
SWIDTH 322 0
DWIDTH 10 0
BBX 9 13 1 0
BITMAP
0400
0C00
1400
1400
2400
4400
4400
8400
FF80
0400
0400
0400
0400
ENDCHAR
STARTCHAR c53
ENCODING -1 53
SWIDTH 322 0
DWIDTH 10 0
BBX 7 13 2 0
BITMAP
7E
40
40
80
80
F8
84
02
02
02
02
04
F8
ENDCHAR
STARTCHAR c54
ENCODING -1 54
SWIDTH 322 0
DWIDTH 10 0
BBX 8 13 1 0
BITMAP
0F
10
20
40
40
80
BC
C2
81
81
81
42
3C
ENDCHAR
STARTCHAR c55
ENCODING -1 55
SWIDTH 322 0
DWIDTH 10 0
BBX 8 13 1 0
BITMAP
FF
02
02
04
04
08
08
10
10
20
20
40
40
ENDCHAR
STARTCHAR c56
ENCODING -1 56
SWIDTH 322 0
DWIDTH 10 0
BBX 8 13 1 0
BITMAP
3C
42
81
81
81
42
3C
42
81
81
81
42
3C
ENDCHAR
STARTCHAR c57
ENCODING -1 57
SWIDTH 322 0
DWIDTH 10 0
BBX 8 13 1 0
BITMAP
3C
42
81
81
81
43
3D
01
02
02
04
08
F0
ENDCHAR
STARTCHAR c58
ENCODING -1 58
SWIDTH 161 0
DWIDTH 5 0
BBX 1 9 2 0
BITMAP
80
80
00
00
00
00
00
80
80
ENDCHAR
STARTCHAR c59
ENCODING -1 59
SWIDTH 161 0
DWIDTH 5 0
BBX 1 12 2 -3
BITMAP
80
80
00
00
00
00
00
80
80
80
80
80
ENDCHAR
STARTCHAR c60
ENCODING -1 60
SWIDTH 387 0
DWIDTH 12 0
BBX 10 9 1 0
BITMAP
00C0
0300
0C00
3000
C000
3000
0C00
0300
00C0
ENDCHAR
STARTCHAR c61
ENCODING -1 61
SWIDTH 354 0
DWIDTH 11 0
BBX 9 4 1 3
BITMAP
FF80
0000
0000
FF80
ENDCHAR
STARTCHAR c62
ENCODING -1 62
SWIDTH 387 0
DWIDTH 12 0
BBX 10 9 1 0
BITMAP
C000
3000
0C00
0300
00C0
0300
0C00
3000
C000
ENDCHAR
STARTCHAR c63
ENCODING -1 63
SWIDTH 290 0
DWIDTH 9 0
BBX 6 13 2 0
BITMAP
F0
08
04
04
04
08
10
20
20
00
00
20
20
ENDCHAR
STARTCHAR c64
ENCODING -1 64
SWIDTH 354 0
DWIDTH 11 0
BBX 9 9 1 0
BITMAP
7080
8880
8700
0000
0000
FF80
0000
0000
FF80
ENDCHAR
STARTCHAR c65
ENCODING -1 65
SWIDTH 354 0
DWIDTH 11 0
BBX 11 13 0 0
BITMAP
0400
0400
0A00
0A00
1100
1100
2080
2080
3F80
4040
4040
8020
8020
ENDCHAR
STARTCHAR c66
ENCODING -1 66
SWIDTH 354 0
DWIDTH 11 0
BBX 7 13 2 0
BITMAP
F8
84
82
82
82
84
F8
84
82
82
82
84
F8
ENDCHAR
STARTCHAR c67
ENCODING -1 67
SWIDTH 354 0
DWIDTH 11 0
BBX 9 13 1 0
BITMAP
8080
8080
4100
2200
2200
1400
0800
1400
2200
2200
4100
8080
8080
ENDCHAR
STARTCHAR c68
ENCODING -1 68
SWIDTH 354 0
DWIDTH 11 0
BBX 11 13 0 0
BITMAP
0400
0400
0A00
0A00
1100
1100
2080
2080
2080
4040
4040
8020
FFE0
ENDCHAR
STARTCHAR c69
ENCODING -1 69
SWIDTH 322 0
DWIDTH 10 0
BBX 7 13 2 0
BITMAP
FE
80
80
80
80
80
FE
80
80
80
80
80
FE
ENDCHAR
STARTCHAR c70
ENCODING -1 70
SWIDTH 419 0
DWIDTH 13 0
BBX 11 15 1 -1
BITMAP
0400
0400
1F00
2480
4440
8420
8420
8420
8420
8420
4440
2480
1F00
0400
0400
ENDCHAR
STARTCHAR c71
ENCODING -1 71
SWIDTH 290 0
DWIDTH 9 0
BBX 7 13 2 0
BITMAP
FE
80
80
80
80
80
80
80
80
80
80
80
80
ENDCHAR
STARTCHAR c72
ENCODING -1 72
SWIDTH 419 0
DWIDTH 13 0
BBX 9 13 2 0
BITMAP
8080
8080
8080
8080
8080
8080
FF80
8080
8080
8080
8080
8080
8080
ENDCHAR
STARTCHAR c73
ENCODING -1 73
SWIDTH 161 0
DWIDTH 5 0
BBX 1 13 2 0
BITMAP
80
80
80
80
80
80
80
80
80
80
80
80
80
ENDCHAR
STARTCHAR c74
ENCODING -1 74
SWIDTH 387 0
DWIDTH 12 0
BBX 10 13 2 0
BITMAP
1C00
6200
4100
4100
3FC0
0100
8100
8100
8100
8100
8100
4200
3C00
ENDCHAR
STARTCHAR c75
ENCODING -1 75
SWIDTH 354 0
DWIDTH 11 0
BBX 8 13 2 0
BITMAP
81
82
84
88
90
A0
C0
A0
90
88
84
82
81
ENDCHAR
STARTCHAR c76
ENCODING -1 76
SWIDTH 354 0
DWIDTH 11 0
BBX 11 13 0 0
BITMAP
0400
0400
0A00
0A00
1100
1100
2080
2080
2080
4040
4040
8020
8020
ENDCHAR
STARTCHAR c77
ENCODING -1 77
SWIDTH 548 0
DWIDTH 17 0
BBX 15 13 1 0
BITMAP
1010
1010
2828
2828
2828
2448
4444
4444
4284
4284
8282
8102
8102
ENDCHAR
STARTCHAR c78
ENCODING -1 78
SWIDTH 419 0
DWIDTH 13 0
BBX 9 13 2 0
BITMAP
8080
C080
A080
A080
9080
9080
8880
8480
8480
8280
8280
8180
8080
ENDCHAR
STARTCHAR c79
ENCODING -1 79
SWIDTH 451 0
DWIDTH 14 0
BBX 12 13 1 0
BITMAP
0F00
30C0
4020
4020
8010
8010
8010
8010
8010
4020
4020
30C0
0F00
ENDCHAR
STARTCHAR c80
ENCODING -1 80
SWIDTH 419 0
DWIDTH 13 0
BBX 9 13 2 0
BITMAP
FF80
8080
8080
8080
8080
8080
8080
8080
8080
8080
8080
8080
8080
ENDCHAR
STARTCHAR c81
ENCODING -1 81
SWIDTH 451 0
DWIDTH 14 0
BBX 12 13 1 0
BITMAP
0F00
30C0
4020
4020
8010
8010
BFD0
8010
8010
4020
4020
30C0
0F00
ENDCHAR
STARTCHAR c82
ENCODING -1 82
SWIDTH 322 0
DWIDTH 10 0
BBX 7 13 2 0
BITMAP
F8
84
82
82
82
84
F8
80
80
80
80
80
80
ENDCHAR
STARTCHAR c83
ENCODING -1 83
SWIDTH 322 0
DWIDTH 10 0
BBX 8 13 1 0
BITMAP
FF
40
20
10
08
04
02
04
08
10
20
40
FF
ENDCHAR
STARTCHAR c84
ENCODING -1 84
SWIDTH 290 0
DWIDTH 9 0
BBX 9 13 0 0
BITMAP
FF80
0800
0800
0800
0800
0800
0800
0800
0800
0800
0800
0800
0800
ENDCHAR
STARTCHAR c85
ENCODING -1 85
SWIDTH 290 0
DWIDTH 9 0
BBX 9 13 0 0
BITMAP
8080
4100
4100
2200
1400
1400
0800
0800
0800
0800
0800
0800
0800
ENDCHAR
STARTCHAR c86
ENCODING -1 86
SWIDTH 290 0
DWIDTH 9 0
BBX 7 13 1 -4
BITMAP
3E
40
80
80
80
80
40
3C
02
02
02
04
38
ENDCHAR
STARTCHAR c87
ENCODING -1 87
SWIDTH 451 0
DWIDTH 14 0
BBX 14 13 0 0
BITMAP
0780
1860
2010
2010
4008
4008
4008
4008
4008
2010
2010
1020
FCFC
ENDCHAR
STARTCHAR c88
ENCODING -1 88
SWIDTH 354 0
DWIDTH 11 0
BBX 9 13 1 0
BITMAP
FF80
0000
0000
0000
0000
0000
7F00
0000
0000
0000
0000
0000
FF80
ENDCHAR
STARTCHAR c89
ENCODING -1 89
SWIDTH 419 0
DWIDTH 13 0
BBX 11 13 1 0
BITMAP
8420
8420
8420
8420
8420
8420
4440
2480
1F00
0400
0400
0400
0400
ENDCHAR
STARTCHAR c90
ENCODING -1 90
SWIDTH 322 0
DWIDTH 10 0
BBX 8 13 1 0
BITMAP
FF
02
02
04
04
08
08
10
20
20
40
40
FF
ENDCHAR
STARTCHAR c91
ENCODING -1 91
SWIDTH 258 0
DWIDTH 8 0
BBX 4 17 2 -3
BITMAP
F0
80
80
80
80
80
80
80
80
80
80
80
80
80
80
80
F0
ENDCHAR
STARTCHAR c92
ENCODING -1 92
SWIDTH 354 0
DWIDTH 11 0
BBX 7 7 2 1
BITMAP
10
10
00
00
00
82
82
ENDCHAR
STARTCHAR c93
ENCODING -1 93
SWIDTH 258 0
DWIDTH 8 0
BBX 4 17 2 -3
BITMAP
F0
10
10
10
10
10
10
10
10
10
10
10
10
10
10
10
F0
ENDCHAR
STARTCHAR c94
ENCODING -1 94
SWIDTH 354 0
DWIDTH 11 0
BBX 9 10 1 0
BITMAP
0800
0800
0800
0800
0800
0800
0800
0800
0800
FF80
ENDCHAR
STARTCHAR c95
ENCODING -1 95
SWIDTH 322 0
DWIDTH 10 0
BBX 10 1 0 -5
BITMAP
FFC0
ENDCHAR
STARTCHAR c96
ENCODING -1 96
SWIDTH 322 0
DWIDTH 10 0
BBX 10 1 0 13
BITMAP
FFC0
ENDCHAR
STARTCHAR c97
ENCODING -1 97
SWIDTH 387 0
DWIDTH 12 0
BBX 10 9 1 0
BITMAP
3C80
4280
8100
8100
8100
8300
8280
4480
38C0
ENDCHAR
STARTCHAR c98
ENCODING -1 98
SWIDTH 322 0
DWIDTH 10 0
BBX 7 18 2 -4
BITMAP
38
44
84
84
84
B8
84
82
82
82
82
82
84
B8
80
80
80
80
ENDCHAR
STARTCHAR c99
ENCODING -1 99
SWIDTH 258 0
DWIDTH 8 0
BBX 7 13 0 -4
BITMAP
C2
22
24
24
28
18
10
30
28
48
48
88
86
ENDCHAR
STARTCHAR c100
ENCODING -1 100
SWIDTH 322 0
DWIDTH 10 0
BBX 8 14 1 0
BITMAP
FE
40
20
10
08
34
42
81
81
81
81
81
42
3C
ENDCHAR
STARTCHAR c101
ENCODING -1 101
SWIDTH 225 0
DWIDTH 7 0
BBX 4 9 2 0
BITMAP
70
80
80
80
70
80
80
80
70
ENDCHAR
STARTCHAR c102
ENCODING -1 102
SWIDTH 354 0
DWIDTH 11 0
BBX 9 17 1 -4
BITMAP
0800
0800
0800
0800
3E00
4900
8880
8880
8880
8880
8880
4900
3E00
0800
0800
0800
0800
ENDCHAR
STARTCHAR c103
ENCODING -1 103
SWIDTH 290 0
DWIDTH 9 0
BBX 8 14 0 -5
BITMAP
C1
21
22
14
14
08
08
18
14
24
24
24
24
18
ENDCHAR
STARTCHAR c104
ENCODING -1 104
SWIDTH 354 0
DWIDTH 11 0
BBX 7 13 2 -4
BITMAP
9C
A2
C2
82
82
82
82
82
82
02
02
02
06
ENDCHAR
STARTCHAR c105
ENCODING -1 105
SWIDTH 161 0
DWIDTH 5 0
BBX 4 9 1 0
BITMAP
C0
40
40
40
40
40
40
50
60
ENDCHAR
STARTCHAR c106
ENCODING -1 106
SWIDTH 354 0
DWIDTH 11 0
BBX 9 13 1 -4
BITMAP
2600
4900
8880
8880
8880
8880
8880
4900
3E00
0800
0800
0800
0800
ENDCHAR
STARTCHAR c107
ENCODING -1 107
SWIDTH 290 0
DWIDTH 9 0
BBX 7 9 2 0
BITMAP
86
88
90
A0
C0
A0
90
88
84
ENDCHAR
STARTCHAR c108
ENCODING -1 108
SWIDTH 290 0
DWIDTH 9 0
BBX 9 14 0 0
BITMAP
6000
1000
1000
1000
0800
0800
1800
1400
2400
2400
4200
4200
8200
8180
ENDCHAR
STARTCHAR c109
ENCODING -1 109
SWIDTH 354 0
DWIDTH 11 0
BBX 7 13 2 -4
BITMAP
82
82
82
82
82
82
86
CA
B2
80
80
80
80
ENDCHAR
STARTCHAR c110
ENCODING -1 110
SWIDTH 290 0
DWIDTH 9 0
BBX 7 9 1 0
BITMAP
9C
82
82
82
44
44
48
30
20
ENDCHAR
STARTCHAR c111
ENCODING -1 111
SWIDTH 322 0
DWIDTH 10 0
BBX 8 9 1 0
BITMAP
3C
42
81
81
81
81
81
42
3C
ENDCHAR
STARTCHAR c112
ENCODING -1 112
SWIDTH 387 0
DWIDTH 12 0
BBX 12 9 0 0
BITMAP
7FF0
9080
1080
1080
1080
1080
1080
1090
10E0
ENDCHAR
STARTCHAR c113
ENCODING -1 113
SWIDTH 322 0
DWIDTH 10 0
BBX 8 14 1 0
BITMAP
3C
42
42
81
81
81
FF
81
81
81
81
42
42
3C
ENDCHAR
STARTCHAR c114
ENCODING -1 114
SWIDTH 354 0
DWIDTH 11 0
BBX 8 13 2 -4
BITMAP
3C
42
81
81
81
81
81
82
BC
80
80
80
80
ENDCHAR
STARTCHAR c115
ENCODING -1 115
SWIDTH 322 0
DWIDTH 10 0
BBX 9 9 1 0
BITMAP
3F80
4200
8100
8100
8100
8100
8100
4200
3C00
ENDCHAR
STARTCHAR c116
ENCODING -1 116
SWIDTH 225 0
DWIDTH 7 0
BBX 7 9 0 0
BITMAP
7E
90
10
10
10
10
10
12
0C
ENDCHAR
STARTCHAR c117
ENCODING -1 117
SWIDTH 354 0
DWIDTH 11 0
BBX 8 9 2 0
BITMAP
8C
82
81
81
81
81
81
42
3C
ENDCHAR
STARTCHAR c118
ENCODING -1 118
SWIDTH 483 0
DWIDTH 15 0
BBX 13 9 1 0
BITMAP
FFF8
2220
4210
8208
8208
8208
8208
4510
38E0
ENDCHAR
STARTCHAR c119
ENCODING -1 119
SWIDTH 483 0
DWIDTH 15 0
BBX 13 9 1 0
BITMAP
3260
4210
8208
8208
8208
8208
8208
4510
38E0
ENDCHAR
STARTCHAR c120
ENCODING -1 120
SWIDTH 258 0
DWIDTH 8 0
BBX 8 18 0 -4
BITMAP
FF
10
20
20
10
0F
10
20
40
40
40
40
20
1C
02
02
02
1C
ENDCHAR
STARTCHAR c121
ENCODING -1 121
SWIDTH 483 0
DWIDTH 15 0
BBX 11 13 2 -4
BITMAP
8420
8420
8420
8420
8420
8420
8420
4440
3F80
0400
0400
0400
0400
ENDCHAR
STARTCHAR c122
ENCODING -1 122
SWIDTH 290 0
DWIDTH 9 0
BBX 8 18 1 -4
BITMAP
FF
0C
10
20
40
40
80
80
80
80
80
60
1E
01
01
01
02
3C
ENDCHAR
STARTCHAR c123
ENCODING -1 123
SWIDTH 258 0
DWIDTH 8 0
BBX 7 17 0 -4
BITMAP
06
08
10
10
10
10
10
20
C0
20
10
10
10
10
10
08
06
ENDCHAR
STARTCHAR c124
ENCODING -1 124
SWIDTH 290 0
DWIDTH 9 0
BBX 1 16 4 -3
BITMAP
80
80
80
80
80
80
80
80
80
80
80
80
80
80
80
80
ENDCHAR
STARTCHAR c125
ENCODING -1 125
SWIDTH 258 0
DWIDTH 8 0
BBX 7 17 1 -4
BITMAP
C0
20
10
10
10
10
10
08
06
08
10
10
10
10
10
20
C0
ENDCHAR
STARTCHAR c126
ENCODING -1 126
SWIDTH 354 0
DWIDTH 11 0
BBX 9 3 1 3
BITMAP
7080
8880
8700
ENDCHAR
ENDFONT
